<?xml version="1.0" standalone="no"?><!DOCTYPE svg PUBLIC "-//W3C//DTD SVG 1.1//EN" "http://www.w3.org/Graphics/SVG/1.1/DTD/svg11.dtd"><svg t="1559716801394" class="icon" style="" viewBox="0 0 1024 1024" version="1.1" xmlns="http://www.w3.org/2000/svg" p-id="5224" xmlns:xlink="http://www.w3.org/1999/xlink" width="128" height="128"><defs><style type="text/css"></style></defs><path d="M609 239.9c-3.9-1.4-7.9-2.6-11.9-3.8-2.6-0.8-5.3-0.5-7.7 0.8-2.3 1.3-4.1 3.4-4.8 6-0.8 2.6-0.5 5.3 0.8 7.7 1.3 2.3 3.4 4.1 6 4.8 3.7 1.1 7.4 2.3 11.1 3.5 3.4 1.2 7.2 0.4 9.9-1.9 2.7-2.4 4-6 3.3-9.5-0.7-3.6-3.3-6.5-6.7-7.6z m87.4 48c-4.3-3.5-10.7-2.8-14.1 1.6-3.5 4.3-2.8 10.7 1.6 14.1 5.6 4.5 11 9.2 16.3 14.1 1.9 1.7 4.3 2.7 6.9 2.7 4.1 0 7.8-2.5 9.4-6.4 1.5-3.8 0.5-8.2-2.5-11-5.7-5.3-11.6-10.3-17.6-15.1z m-31.6-22c-6.6-4-13.4-7.7-20.3-11.1-5-2.5-11-0.5-13.5 4.5s-0.5 11 4.5 13.5c6.4 3.2 12.7 6.7 18.9 10.4 2.3 1.4 5 1.8 7.6 1.1 2.6-0.6 4.8-2.3 6.2-4.6 1.4-2.3 1.8-5 1.1-7.6-0.6-2.6-2.2-4.8-4.5-6.2z m118.9 137.5c-3-7.1-6.2-14.1-9.8-20.9-2.5-4.9-8.6-6.9-13.5-4.3-4.9 2.5-6.9 8.6-4.3 13.5 3.3 6.4 6.3 12.9 9.1 19.5 2.1 5.1 8 7.5 13.2 5.4 5.1-2.2 7.5-8.1 5.3-13.2z m-29.6-53.9c-4.4-6.3-9.1-12.5-13.9-18.4-3.5-4.3-9.9-4.9-14.1-1.4-4.3 3.5-4.9 9.9-1.4 14.2 4.6 5.5 8.9 11.3 13 17.2 1.5 2.2 3.9 3.7 6.5 4.2s5.3-0.1 7.5-1.6c4.5-3.4 5.6-9.6 2.4-14.2z m45.1 102.6c-0.9-4.1-1.9-8.1-3-12.1-1.5-5.4-7-8.5-12.3-7.1-5.4 1.4-8.5 7-7.1 12.3 1 3.7 1.9 7.5 2.8 11.3 1.2 5.4 6.6 8.8 12 7.6 5.5-1.3 8.9-6.6 7.6-12z m-554.8-18.4c-5.4-1.4-10.9 1.8-12.3 7.1-1.1 4-2.1 8.1-3 12.1-1.2 5.4 2.2 10.8 7.7 12 5.4 1.2 10.8-2.2 12-7.7 0.8-3.8 1.8-7.6 2.7-11.3 0.7-2.6 0.3-5.3-1-7.6-1.4-2.2-3.6-3.9-6.1-4.6z m29.3-65.1c-2.3-1.3-5.1-1.7-7.6-0.9-2.6 0.7-4.8 2.4-6.1 4.7-4.6 8.1-8.7 16.3-12.5 24.8-1.5 3.3-1.2 7.1 0.9 10.1 2.1 2.9 5.6 4.5 9.3 4.1 3.6-0.4 6.7-2.7 8.1-6 3.5-7.9 7.4-15.6 11.7-23.1 2.8-4.8 1.1-10.9-3.8-13.7z m30.6-55.4c-6.4 6.7-12.6 13.6-18.3 20.9-3.4 4.3-2.7 10.6 1.6 14.1 4.3 3.5 10.6 2.8 14.1-1.5 5.4-6.7 11.1-13.2 17.1-19.4 3.8-4 3.7-10.3-0.3-14.2-4-3.9-10.3-3.8-14.2 0.1z m71.5-42.9c-2.9-4.7-9.1-6.2-13.8-3.3-7.9 4.8-15.6 10.1-23 15.6-2.9 2.2-4.4 5.7-4 9.3 0.4 3.6 2.7 6.7 6.1 8.1 3.3 1.4 7.1 0.9 10-1.3 6.9-5.2 14-10 21.4-14.5 2.3-1.4 3.9-3.6 4.5-6.2 0.6-2.7 0.2-5.4-1.2-7.7z m52-22.8c-1.9-5.2-7.7-7.9-12.9-6-3.9 1.4-7.8 2.9-11.7 4.5-4.4 1.8-7 6.5-6 11.2 0.9 4.7 5.1 8.1 9.9 8.1 1.3 0 2.6-0.2 3.8-0.8 3.6-1.5 7.2-2.9 10.8-4.2 2.5-0.9 4.6-2.8 5.7-5.2 1.2-2.3 1.3-5.1 0.4-7.6z m0 0" fill="#330D84" p-id="5225"></path><path d="M244.4 433.7c-5.4-1.4-10.9 1.8-12.3 7.1-1.1 4-2.1 8.1-3 12.1-1.2 5.4 2.2 10.8 7.7 12 5.4 1.2 10.8-2.2 12-7.7 0.8-3.8 1.8-7.6 2.7-11.3 0.7-2.6 0.3-5.3-1-7.6-1.4-2.2-3.6-3.9-6.1-4.6z m29.3-65.1c-2.3-1.3-5.1-1.7-7.6-0.9-2.6 0.7-4.8 2.4-6.1 4.7-4.6 8.1-8.7 16.3-12.5 24.8-1.5 3.3-1.2 7.1 0.9 10.1 2.1 2.9 5.6 4.5 9.3 4.1 3.6-0.4 6.7-2.7 8.1-6 3.5-7.9 7.4-15.6 11.7-23.1 2.8-4.8 1.1-10.9-3.8-13.7z m30.6-55.4c-6.4 6.7-12.6 13.6-18.3 20.9-3.4 4.3-2.7 10.6 1.6 14.1 4.3 3.5 10.6 2.8 14.1-1.5 5.4-6.7 11.1-13.2 17.1-19.4 3.8-4 3.7-10.3-0.3-14.2-4-3.9-10.3-3.8-14.2 0.1z m71.5-42.9c-2.9-4.7-9.1-6.2-13.8-3.3-7.9 4.8-15.6 10.1-23 15.6-2.9 2.2-4.4 5.7-4 9.3 0.4 3.6 2.7 6.7 6.1 8.1 3.3 1.4 7.1 0.9 10-1.3 6.9-5.2 14-10 21.4-14.5 2.3-1.4 3.9-3.6 4.5-6.2 0.6-2.7 0.2-5.4-1.2-7.7z m52-22.8c-1.9-5.2-7.7-7.9-12.9-6-3.9 1.4-7.8 2.9-11.7 4.5-4.4 1.8-7 6.5-6 11.2 0.9 4.7 5.1 8.1 9.9 8.1 1.3 0 2.6-0.2 3.8-0.8 3.6-1.5 7.2-2.9 10.8-4.2 2.5-0.9 4.6-2.8 5.7-5.2 1.2-2.3 1.3-5.1 0.4-7.6z m3.6 527.7c-3.7-1.2-7.4-2.4-11-3.8-5.2-1.8-10.9 0.9-12.8 6-1.9 5.2 0.7 10.9 5.8 12.9 3.9 1.4 7.9 2.8 11.8 4.1 5.2 1.5 10.7-1.4 12.3-6.6 1.7-5.2-1-10.8-6.1-12.6zM282.8 659c-3-4.6-9.1-6-13.7-3.1-4.7 2.9-6.2 9-3.4 13.7 4.3 6.9 8.8 13.6 13.6 20.1 1.9 2.6 4.9 4.1 8.1 4.1 3.8 0 7.3-2.1 9-5.5 1.7-3.4 1.4-7.5-0.9-10.5-4.5-6.2-8.7-12.4-12.7-18.8zM386 756c-6.6-3.6-13.1-7.4-19.5-11.5-4.7-2.9-10.8-1.6-13.8 3.1-3 4.6-1.7 10.8 2.8 13.8 6.8 4.4 13.8 8.5 20.9 12.4 4.9 2.6 11 0.8 13.6-4.1 2.8-5 0.9-11.1-4-13.7z m-66-49.6c-3.9-3.9-10.2-4-14.2-0.1-3.9 3.9-4 10.2-0.2 14.2 5.7 5.8 11.6 11.3 17.7 16.6 1.8 1.6 4.2 2.5 6.6 2.5 4.2 0 8-2.6 9.4-6.5 1.5-3.9 0.3-8.4-2.8-11.1-5.8-5.1-11.3-10.2-16.5-15.6z m-54.7-80.8c-1.6-3.5-3-7.1-4.5-10.7-2-5.2-7.8-7.7-13-5.7s-7.7 7.8-5.7 13c1.5 3.9 3.1 7.7 4.8 11.5 2.3 5 8.2 7.2 13.2 5s7.3-8 5.2-13.1z m514.1-12.7c-2.5-1-5.2-1-7.7 0s-4.4 3-5.4 5.5c-1.5 3.6-3 7.2-4.6 10.7-2.2 5 0 10.9 5 13.2 5 2.3 10.9 0.1 13.3-4.8 1.7-3.8 3.4-7.6 4.9-11.5 2.1-5.2-0.3-11-5.5-13.1zM652 750.7c-6.8 4-13.8 7.7-21 11.1-5 2.4-7.1 8.4-4.8 13.4 1.1 2.4 3.2 4.3 5.7 5.2 2.5 0.9 5.3 0.7 7.7-0.4 7.7-3.7 15.2-7.7 22.5-12 4.8-2.8 6.4-9 3.6-13.8-1.4-2.3-3.6-4-6.1-4.6-2.6-0.7-5.3-0.3-7.6 1.1z m104.6-89.9c-2.2-1.4-5-1.9-7.6-1.4-2.6 0.6-4.9 2.1-6.3 4.4-4.3 6.6-8.9 13.1-13.8 19.4-3.4 4.4-2.6 10.7 1.8 14 4.4 3.4 10.6 2.6 14.1-1.7 5.2-6.7 10.2-13.6 14.8-20.8 1.5-2.2 2-5 1.4-7.6-0.6-2.6-2.2-4.8-4.4-6.3z m-54.2 51.7c-5.7 5.5-11.7 10.7-17.8 15.7-4.3 3.5-4.9 9.8-1.5 14.1 3.5 4.3 9.7 5 14.1 1.6 6.6-5.3 13-10.9 19.2-16.8 4-3.8 4.1-10.2 0.3-14.2-3.9-4.1-10.3-4.2-14.3-0.4z m-95.7 70.3c-1.6-5.3-7.2-8.3-12.6-6.7-3.7 1.1-7.4 2.2-11.2 3.2-3.5 0.9-6.2 3.6-7.2 7.1-1 3.5 0 7.2 2.5 9.7 2.5 2.6 6.2 3.6 9.7 2.7 4-1 8.1-2.2 12-3.4 2.5-0.8 4.7-2.5 5.9-4.9 1.4-2.4 1.7-5.1 0.9-7.7z m0 0" fill="#330D84" p-id="5226"></path><path d="M728 501.7h98.6v98.6H728z" fill="#FFE37B" p-id="5227"></path><path d="M850.1 474.4l-23.6 27.3v98.6l23.7-36.2v-89.7h-0.1z m0 0" fill="#EFAB11" p-id="5228"></path><path d="M751.5 474.4L728 501.7h98.6l23.6-27.3h-98.7z m0 0" fill="#FFBE1B" p-id="5229"></path><path d="M404.7 452.1h168.4v168.4H404.7z" fill="#8AC9F9" p-id="5230"></path><path d="M613.3 405.4l-40.2 46.7v168.4l40.5-61.9V405.4h-0.3z m0 0" fill="#5D8EF9" p-id="5231"></path><path d="M444.9 405.4l-40.2 46.7h168.4l40.2-46.7H444.9z m0 0" fill="#6DC5F2" p-id="5232"></path><path d="M292.2 520.1h112.5v20.1H292.2v-20.1z m206.3-217.3h20.1v102.6h-20.1V302.8z m0 317.7h20.1V725h-20.1V620.5z m115.1-100.4H728v20.1H613.6v-20.1z m0 0" fill="#330D84" p-id="5233"></path><path d="M448 204.2h98.6v98.6H448z" fill="#FFE37B" p-id="5234"></path><path d="M570.1 176.9l-23.6 27.3v98.6l23.7-36.2v-89.7h-0.1z m0 0" fill="#EFAB11" p-id="5235"></path><path d="M471.6 176.9L448 204.2h98.6l23.6-27.3h-98.6z m0 0" fill="#FFBE1B" p-id="5236"></path><path d="M448 752.2h98.6v98.6H448z" fill="#FFE37B" p-id="5237"></path><path d="M570.1 724.9l-23.6 27.3v98.6l23.7-36.2v-89.7h-0.1z m0 0" fill="#EFAB11" p-id="5238"></path><path d="M471.6 724.9L448 752.2h98.6l23.6-27.3h-98.6z m0 0" fill="#FFBE1B" p-id="5239"></path><path d="M170 501.7h98.6v98.6H170z" fill="#FFE37B" p-id="5240"></path><path d="M292.1 474.4l-23.6 27.3v98.6l23.7-36.2v-89.7h-0.1z m0 0" fill="#EFAB11" p-id="5241"></path><path d="M193.5 474.4L170 501.7h98.6l23.6-27.3h-98.7z m0 0" fill="#FFBE1B" p-id="5242"></path><path d="M756.1 244.9c-19.3-4.9-34.4-20-39.3-39.3l-0.8-3.3-0.8 3.3c-4.9 19.3-20 34.4-39.3 39.3l-3.3 0.8 3.3 0.8c19.3 4.8 34.5 20 39.3 39.3l0.8 3.3 0.8-3.3c4.8-19.3 19.9-34.4 39.3-39.3l3.3-0.8-3.3-0.8z m64.9 61.9c-12.3-3.1-21.9-12.7-25-24.9l-0.5-2.1-0.5 2.1c-3.1 12.3-12.7 21.9-24.9 24.9l-2.1 0.5 2.1 0.5c12.3 3.1 21.9 12.7 24.9 24.9l0.5 2.1 0.5-2.1c3.1-12.3 12.7-21.9 25-24.9l2.1-0.5-2.1-0.5z m0 0" fill="#330D84" p-id="5243"></path><path d="M395.6 823.9c-17.7-4.4-31.5-18.3-36-36l-0.8-3-0.8 3c-4.4 17.7-18.3 31.5-36 36l-3 0.8 3 0.8c17.7 4.4 31.6 18.3 36 36l0.8 3 0.8-3c4.4-17.7 18.3-31.5 36-36l3-0.8-3-0.8z m0 0" fill="#FFBE1B" p-id="5244"></path><path d="M396.4 404.8c-13.1-3.3-23.3-13.5-26.6-26.6l-0.5-2.2-0.6 2.2c-3.3 13.1-13.5 23.3-26.6 26.6l-2.2 0.6 2.2 0.6c13.1 3.3 23.3 13.5 26.6 26.6l0.6 2.2 0.5-2.2c3.3-13.1 13.5-23.3 26.6-26.6l2.2-0.6-2.2-0.6z m50.4-44.7c-8.4-2.1-15-8.7-17.1-17.1l-0.4-1.4-0.4 1.4c-2.1 8.4-8.7 15-17.1 17.1l-1.4 0.4 1.4 0.4c8.4 2.1 15 8.7 17.1 17.1l0.4 1.4 0.4-1.4c2.1-8.4 8.7-15 17.1-17.1l1.4-0.4-1.4-0.4z m0 0" fill="#5D8EF9" p-id="5245"></path></svg>