<?xml version="1.0" standalone="no"?><!DOCTYPE svg PUBLIC "-//W3C//DTD SVG 1.1//EN" "http://www.w3.org/Graphics/SVG/1.1/DTD/svg11.dtd"><svg t="1559714587772" class="icon" style="" viewBox="0 0 1024 1024" version="1.1" xmlns="http://www.w3.org/2000/svg" p-id="4612" xmlns:xlink="http://www.w3.org/1999/xlink" width="32" height="32"><defs><style type="text/css"></style></defs><path d="M638.3 423.2H385.9c-20.9 0-37.9-16.9-37.9-37.9 0-20.9 17-37.9 37.9-37.9h252.4c20.9 0 37.9 16.9 37.9 37.9-0.1 20.9-17.1 37.9-37.9 37.9zM486.8 271.8H385.9c-20.9 0-37.9-16.9-37.9-37.9s17-37.9 37.9-37.9h100.9c20.9 0 37.9 16.9 37.9 37.9s-17 37.9-37.9 37.9z" fill="#29CCB6" p-id="4613"></path><path d="M840.1 533.8V82.5c0-27.9-22.6-50.5-50.5-50.5H234.5C206.6 32 184 54.6 184 82.5v451.3l-68.2-30.1c-27.3-12.1-58 7.9-58 37.8V950c0 22.6 18.4 41 41 41h826.5c22.6 0 41-18.4 41-41V541.5c0-29.8-30.7-49.8-58-37.8l-68.2 30.1zM284.9 133h454.2v445.4l-227 100.4-227.2-100.4V133z m539.5 757.1H199.8c-22.6 0-41-18.4-41-41V633l312.5 138.1c13 5.7 26.9 8.6 40.8 8.6 13.9 0 27.8-2.9 40.8-8.6L865.4 633v216c0 22.7-18.4 41.1-41 41.1z" fill="#4585F5" p-id="4614"></path></svg>