<?xml version="1.0" standalone="no"?><!DOCTYPE svg PUBLIC "-//W3C//DTD SVG 1.1//EN" "http://www.w3.org/Graphics/SVG/1.1/DTD/svg11.dtd"><svg t="1559716771025" class="icon" style="" viewBox="0 0 1024 1024" version="1.1" xmlns="http://www.w3.org/2000/svg" p-id="5023" xmlns:xlink="http://www.w3.org/1999/xlink" width="128" height="128"><defs><style type="text/css"></style></defs><path d="M653.4 547.3c-26.7 0-48.5 21.7-48.5 48.5v49.6h63.7c3.1-4.7 6.2-9.5 9.1-14.4 8.8-14.6 16.3-30.1 22.9-46-4.9-21.6-24.2-37.7-47.2-37.7z m0 0" fill="#330D84" p-id="5024"></path><path d="M724.5 355.7l-200.8-93.8c-4-1.9-8.4-2.9-12.9-2.9s-8.8 1-12.9 2.9l-200.8 93.9c-11.7 5.4-18.9 18.2-18 31.7C282.7 444 295.9 551 343.9 631c59.7 99.4 131.9 126.2 160.2 133 4.4 1.1 9 1.1 13.3 0 7.7-1.9 18.7-5.2 31.7-11.1v-90c0-9.7 7.9-17.5 17.5-17.5h9.9v-49.6c0-42.3 34.4-76.7 76.7-76.7 24.5 0 46.4 11.6 60.5 29.6 19.3-60.8 26.2-122.7 28.7-161.2 1-13.7-6.3-26.4-17.9-31.8z m0 0" fill="#330D84" p-id="5025"></path><path d="M668.6 645.4h33.3v-49.6c0-3.7-0.4-7.3-1.2-10.8-6.6 15.9-14.2 31.4-22.9 46-3 4.8-6.1 9.6-9.2 14.4z m0 0" fill="#6857E5" p-id="5026"></path><path d="M736.6 329.6l-200.8-93.8c-15.9-7.4-34.3-7.4-50.2 0l-200.8 93.8c-22.3 10.4-36.2 34.4-34.6 59.6 3.8 59.3 17.8 171.5 68.9 256.6C384.5 754.5 465.5 784.2 497.3 792c4.4 1.1 8.9 1.6 13.4 1.6s9-0.5 13.4-1.6c6.8-1.6 15.8-4.3 26.3-8.5-0.9-2.2-1.4-4.5-1.4-6.9v-23.7c-13.1 5.9-24 9.2-31.7 11.1-4.4 1.1-9 1.1-13.3 0-28.3-6.9-100.6-33.6-160.2-133-48-79.9-61.2-187-64.8-243.6-0.9-13.5 6.4-26.2 18-31.7l200.8-93.9c4-1.9 8.4-2.9 12.9-2.9s8.8 1 12.9 2.9l200.8 93.8c11.7 5.4 18.9 18.2 18.1 31.7-2.5 38.6-9.4 100.4-28.7 161.2a75.92 75.92 0 0 1 16 40.8c29-73.5 38.4-153.3 41.4-200.2 1.6-25.1-12.3-49.1-34.6-59.5z m0 0" fill="#6857E5" p-id="5027"></path><path d="M463.2 181.3a71.29 71.29 0 0 1-51.8-51.8l-1.1-4.4-1.1 4.4a71.29 71.29 0 0 1-51.8 51.8l-4.3 1.1 4.3 1.1a71.29 71.29 0 0 1 51.8 51.8l1.1 4.4 1.1-4.4a71.29 71.29 0 0 1 51.8-51.8l4.3-1.1-4.3-1.1zM285.5 294.1c-17-4.3-30.3-17.5-34.5-34.5l-0.7-2.9-0.7 2.9c-4.3 17-17.5 30.3-34.5 34.5l-2.9 0.7 2.9 0.7c17 4.2 30.3 17.5 34.5 34.5l0.7 2.9 0.7-2.9c4.3-17 17.5-30.3 34.5-34.5l2.9-0.7-2.9-0.7z m0 0" fill="#330D84" p-id="5028"></path><path d="M837.3 599.7c-16-4-28.5-16.5-32.5-32.5l-0.7-2.7-0.7 2.7c-4 16-16.5 28.5-32.5 32.5l-2.7 0.7 2.7 0.7c16 4 28.5 16.5 32.5 32.5l0.7 2.7 0.7-2.7c4-16 16.5-28.5 32.5-32.5l2.7-0.7-2.7-0.7z m0 0" fill="#FFBE1B" p-id="5029"></path><path d="M462.1 828.9c-22.6-5.7-40.2-23.3-45.8-45.8l-1-3.8-1 3.8c-5.6 22.6-23.3 40.2-45.8 45.8l-3.8 1 3.8 1c22.6 5.6 40.2 23.3 45.8 45.8l1 3.9 1-3.9c5.7-22.6 23.3-40.2 45.8-45.8l3.9-1-3.9-1z m84.6 18.8c-14.3-3.6-25.5-14.8-29.1-29.1l-0.6-2.4-0.6 2.4c-3.6 14.3-14.8 25.5-29.1 29.1l-2.4 0.6 2.4 0.6c14.3 3.6 25.5 14.8 29.1 29.1l0.6 2.5 0.6-2.5c3.6-14.3 14.8-25.5 29.1-29.1l2.4-0.6-2.4-0.6z m0 0" fill="#5D8EF9" p-id="5030"></path><path d="M653.4 519c-42.3 0-76.7 34.4-76.7 76.7v49.6H605v-49.6c0-26.7 21.7-48.5 48.5-48.5 26.7 0 48.5 21.7 48.5 48.5v49.6h28.3v-49.6c-0.2-42.3-34.6-76.7-76.9-76.7z m0 0" fill="#FFBE1B" p-id="5031"></path><path d="M740 645.4H566.7c-9.7 0-17.5 7.8-17.5 17.5v113.7c0 4.7 1.8 9.1 5.1 12.4 3.3 3.3 7.8 5.1 12.4 5.1H740c4.7 0 9.1-1.8 12.4-5.1 3.3-3.3 5.1-7.7 5.1-12.4V662.9c0.1-9.7-7.8-17.5-17.5-17.5z m0 0" fill="#8AC9F9" p-id="5032"></path><path d="M617.8 384.9c-12.5-10.5-31.1-8.9-41.5 3.6l-93.1 110.7-38-36.8c-11.7-11.3-30.4-11-41.7 0.7-11.3 11.7-11 30.4 0.7 41.7l60.8 58.8c5.9 5.7 13.9 8.7 22 8.2 8.2-0.4 15.8-4.2 21-10.5l113.4-134.9c10.5-12.4 8.9-31-3.6-41.5z m0 0" fill="#FFFFFF" p-id="5033"></path></svg>