<?xml version="1.0" standalone="no"?><!DOCTYPE svg PUBLIC "-//W3C//DTD SVG 1.1//EN" "http://www.w3.org/Graphics/SVG/1.1/DTD/svg11.dtd"><svg t="1559716612692" class="icon" style="" viewBox="0 0 1024 1024" version="1.1" xmlns="http://www.w3.org/2000/svg" p-id="4785" xmlns:xlink="http://www.w3.org/1999/xlink" width="128" height="128"><defs><style type="text/css"></style></defs><path d="M451 820.1c-19.3-4.8-34.3-19.9-39.1-39.1l-0.8-3.3-0.8 3.3c-4.8 19.3-19.9 34.3-39.1 39.1l-3.3 0.8 3.3 0.8c19.3 4.8 34.3 19.9 39.1 39.1l0.8 3.3 0.8-3.3c4.8-19.3 19.9-34.3 39.1-39.1l3.3-0.8-3.3-0.8z m0 0" fill="#330D84" p-id="4786"></path><path d="M831.9 430.2c-20.1-5-35.8-20.8-40.9-40.9l-0.9-3.4-0.9 3.4c-5 20.1-20.8 35.8-40.9 40.9l-3.4 0.9 3.4 0.9c20.1 5 35.8 20.7 40.9 40.9l0.9 3.4 0.9-3.4c5-20.1 20.8-35.8 40.9-40.9l3.4-0.9-3.4-0.9zM787 310.1c-28.2-7.1-50.3-29.1-57.3-57.4l-1.2-4.8-1.2 4.8c-7.1 28.2-29.1 50.3-57.3 57.4l-4.8 1.2 4.8 1.2c28.2 7.1 50.3 29.1 57.3 57.3l1.2 4.8 1.2-4.8c7.1-28.2 29.1-50.3 57.3-57.3l4.8-1.2-4.8-1.2z m0 0" fill="#5D8EF9" p-id="4787"></path><path d="M251.9 412.4c-24.1-6-42.8-24.8-48.9-48.9l-1-4.1-1 4.1c-6 24.1-24.8 42.9-48.9 48.9l-4.1 1 4.1 1c24.1 6 42.9 24.8 48.9 48.9l1 4.1 1-4.1c6-24.1 24.8-42.9 48.9-48.9l4.1-1-4.1-1z m11.3 122.5c-16.1-4-28.7-16.6-32.7-32.7l-0.7-2.7-0.7 2.7c-4 16.1-16.6 28.7-32.7 32.7l-2.7 0.7 2.7 0.7c16.1 4 28.7 16.6 32.7 32.7l0.7 2.7 0.7-2.7c4-16.1 16.6-28.7 32.7-32.7l2.7-0.7-2.7-0.7z m0 0" fill="#FFBE1B" p-id="4788"></path><path d="M585.7 233.7H276.6v453.6H466V497.8c0-17.5 14.2-31.8 31.8-31.8h129.9V275.6c-0.1-23.1-18.9-41.9-42-41.9z m0 0" fill="#FFE37B" p-id="4789"></path><path d="M276.6 233.7h48v453.6h-48z" fill="#FFBE1B" p-id="4790"></path><path d="M324.6 687.3V742l24.9-14.5 24.9 14.5v-54.7h-49.8z m388.7-221.2H497.7c-17.5 0-31.8 14.2-31.8 31.8v58.9H745v-58.9c0-17.6-14.2-31.8-31.7-31.8z m0 0" fill="#330D84" p-id="4791"></path><path d="M465.9 556.7v201.7c0 17.5 14.2 31.8 31.8 31.8h215.5c17.5 0 31.8-14.2 31.8-31.8V556.7H465.9z m0 0" fill="#6857E5" p-id="4792"></path><path d="M543.2 587h-31.3c-2.9 0-5.3 2.4-5.3 5.3v31.3c0 1.4 0.6 2.7 1.5 3.7 1 1 2.3 1.5 3.7 1.5h31.3c1.4 0 2.7-0.6 3.7-1.5 1-1 1.5-2.3 1.5-3.7v-31.3c0-1.4-0.6-2.7-1.5-3.7-0.8-1.1-2.2-1.6-3.6-1.6z m77.9 0h-31.3c-2.9 0-5.3 2.4-5.3 5.3v31.3c0 2.9 2.4 5.3 5.3 5.3h31.3c1.4 0 2.7-0.6 3.7-1.6s1.5-2.3 1.5-3.7v-31.3c0-1.4-0.6-2.7-1.5-3.7-0.9-1.1-2.3-1.6-3.7-1.6z m78 0h-31.3c-1.4 0-2.7 0.6-3.7 1.5-1 1-1.5 2.3-1.5 3.7v31.3c0 1.4 0.6 2.7 1.5 3.7 1 1 2.3 1.6 3.7 1.6h31.3c1.4 0 2.7-0.6 3.7-1.6s1.5-2.3 1.5-3.7v-31.3c0-1.4-0.6-2.7-1.5-3.7-1-1-2.3-1.5-3.7-1.5z m-155.9 66.4h-31.3c-1.4 0-2.7 0.6-3.7 1.6s-1.5 2.3-1.5 3.7V690c0 2.9 2.4 5.3 5.3 5.3h31.3c2.9 0 5.3-2.4 5.3-5.3v-31.3c0-1.4-0.6-2.7-1.5-3.7-1.1-1-2.5-1.6-3.9-1.6z m77.9 0h-31.3c-2.9 0-5.3 2.4-5.3 5.3V690c0 2.9 2.4 5.3 5.3 5.3h31.3c2.9 0 5.3-2.4 5.3-5.3v-31.3c0-1.4-0.6-2.7-1.5-3.7-1-1-2.4-1.6-3.8-1.6z m78 0h-31.3c-1.4 0-2.7 0.6-3.7 1.6s-1.5 2.3-1.5 3.7V690c0 2.9 2.4 5.3 5.3 5.3h31.3c2.9 0 5.3-2.4 5.3-5.3v-31.3c0-1.4-0.6-2.7-1.5-3.7-1.2-1-2.5-1.6-3.9-1.6z m-155.9 66.5h-31.3c-2.9 0-5.3 2.4-5.3 5.3v31.3c0 2.9 2.4 5.3 5.3 5.3h31.3c2.9 0 5.3-2.4 5.3-5.3v-31.3c0-1.4-0.6-2.7-1.5-3.7s-2.4-1.6-3.8-1.6z m77.9 0h-31.3c-2.9 0-5.3 2.4-5.3 5.3v31.3c0 2.9 2.4 5.3 5.3 5.3h31.3c1.4 0 2.7-0.6 3.7-1.5 1-1 1.5-2.3 1.5-3.7v-31.3c0-1.4-0.6-2.7-1.5-3.7-0.9-1.1-2.3-1.7-3.7-1.7z m78 0h-31.3c-1.4 0-2.7 0.6-3.7 1.5-1 1-1.5 2.3-1.5 3.7v31.3c0 1.4 0.6 2.7 1.5 3.7 1 1 2.3 1.5 3.7 1.5h31.3c1.4 0 2.7-0.6 3.7-1.5 1-1 1.5-2.3 1.5-3.7v-31.3c0-1.4-0.6-2.7-1.5-3.7-1-0.9-2.3-1.5-3.7-1.5z m0 0" fill="#FFFFFF" p-id="4793"></path><path d="M499.6 490.6h211.7v45H499.6z" fill="#8AC9F9" p-id="4794"></path></svg>