<?xml version="1.0" standalone="no"?><!DOCTYPE svg PUBLIC "-//W3C//DTD SVG 1.1//EN" "http://www.w3.org/Graphics/SVG/1.1/DTD/svg11.dtd"><svg t="1559714764151" class="icon" style="" viewBox="0 0 1024 1024" version="1.1" xmlns="http://www.w3.org/2000/svg" p-id="4963" xmlns:xlink="http://www.w3.org/1999/xlink" width="32" height="32"><defs><style type="text/css"></style></defs><path d="M113.8 637h373.5c27.5 0 49.8 22.3 49.8 49.8 0 27.5-22.3 49.8-49.8 49.8H113.8c-27.5 0-49.8-22.3-49.8-49.8 0-27.5 22.3-49.8 49.8-49.8z" fill="#29CCB6" p-id="4964"></path><path d="M786.1 861.1c-96.1 0-174.3-78.2-174.3-174.3S690 512.5 786.1 512.5s174.3 78.2 174.3 174.3-78.2 174.3-174.3 174.3z m0-249c-41.2 0-74.7 33.5-74.7 74.7s33.5 74.7 74.7 74.7 74.7-33.5 74.7-74.7-33.5-74.7-74.7-74.7z" fill="#4585F5" p-id="4965"></path><path d="M512.2 288.4h373.5c27.5 0 49.8 22.3 49.8 49.8S913.2 388 885.7 388H512.2c-27.5 0-49.8-22.3-49.8-49.8s22.3-49.8 49.8-49.8z" fill="#29CCB6" p-id="4966"></path><path d="M238.3 512.5C142.2 512.5 64 434.3 64 338.2s78.2-174.3 174.3-174.3c96.1 0 174.3 78.2 174.3 174.3s-78.2 174.3-174.3 174.3z m0-249c-41.2 0-74.7 33.5-74.7 74.7s33.5 74.7 74.7 74.7 74.7-33.5 74.7-74.7-33.5-74.7-74.7-74.7z" fill="#4585F5" p-id="4967"></path></svg>