<?xml version="1.0" standalone="no"?><!DOCTYPE svg PUBLIC "-//W3C//DTD SVG 1.1//EN" "http://www.w3.org/Graphics/SVG/1.1/DTD/svg11.dtd"><svg t="1559716487027" class="icon" style="" viewBox="0 0 1024 1024" version="1.1" xmlns="http://www.w3.org/2000/svg" p-id="4379" xmlns:xlink="http://www.w3.org/1999/xlink" width="128" height="128"><defs><style type="text/css"></style></defs><path d="M278.7 273.8c-18.7-4.5-33.3-18.5-37.9-36.3l-0.8-3.1-0.8 3.1c-4.7 17.9-19.3 31.9-38 36.3l-3.2 0.8 3.2 0.8c18.7 4.5 33.3 18.5 38 36.3l0.8 3.1 0.8-3.1c4.7-17.9 19.3-31.9 37.9-36.3l3.2-0.8-3.2-0.8z m0 0" fill="#330D84" p-id="4380"></path><path d="M882.4 684.5c-15.8-3.8-28.1-15.6-32.1-30.7l-0.7-2.6-0.7 2.6c-4 15.1-16.3 26.9-32.1 30.7l-2.7 0.6 2.7 0.6c15.8 3.8 28.1 15.6 32.1 30.7l0.7 2.6 0.7-2.6c4-15.1 16.3-26.9 32.1-30.7l2.7-0.6-2.7-0.6z m0 0" fill="#FFBE1B" p-id="4381"></path><path d="M416.7 730.8c-15.8-3.8-28.2-15.6-32.2-30.8l-0.7-2.6-0.7 2.6c-4 15.2-16.3 27-32.2 30.8l-2.7 0.6 2.7 0.7c15.8 3.8 28.2 15.6 32.2 30.8l0.7 2.6 0.7-2.6c4-15.2 16.3-27 32.2-30.8l2.7-0.7-2.7-0.6zM517.8 790c-26.9-6.5-47.9-26.6-54.7-52.4l-1.1-4.4-1.1 4.4c-6.8 25.8-27.8 45.9-54.7 52.4l-4.6 1.1 4.6 1.1c26.9 6.5 47.9 26.6 54.7 52.4l1.1 4.4 1.1-4.4c6.8-25.8 27.8-45.9 54.7-52.4l4.6-1.1-4.6-1.1z m0 0" fill="#5D8EF9" p-id="4382"></path><path d="M203.4 334.3c-9.8-2.3-17.4-9.7-19.9-19.1l-0.4-1.6-0.4 1.6c-2.5 9.4-10.1 16.7-19.9 19.1l-1.7 0.4 1.7 0.4c9.8 2.4 17.4 9.7 19.9 19.1l0.4 1.6 0.4-1.6c2.5-9.4 10.1-16.7 19.9-19.1l1.7-0.4-1.7-0.4z m0 0" fill="#330D84" p-id="4383"></path><path d="M322 357.2h-94.4c-18.7 0-33.8 15.1-33.8 33.8v228c4.4-1.4 9-2.2 13.9-2.2 24.5 0 44.4 19.9 44.4 44.4v1.4H322c18.7 0 33.8-15.1 33.8-33.8V391c0-18.7-15.1-33.8-33.8-33.8z m0 0" fill="#5D8EF9" p-id="4384"></path><path d="M229.7 415.5h90.1v24.1h-90.1v-24.1z m0 55.2h90.1v24.1h-90.1v-24.1z m0 54.2h90.1V549h-90.1v-24.1z m0 55.3h90.1v24.1h-90.1v-24.1z m0 0M263.8 384.4c0 6.1 4.9 11 11 11s11-4.9 11-11-4.9-11-11-11c-6.1-0.1-11 4.9-11 11z m0 0" fill="#FFFFFF" p-id="4385"></path><path d="M582.9 405.2c-24.5 0-44.4-19.9-44.4-44.4 0-1.2 0.1-2.4 0.2-3.6h-75.1c-18.7 0-33.8 15.1-33.8 33.8v237.8c0 18.7 15.1 33.8 33.8 33.8H558c18.7 0 33.8-15.1 33.8-33.8V404.3c-2.9 0.6-5.8 0.9-8.9 0.9z m0 0" fill="#5D8EF9" p-id="4386"></path><path d="M465.7 415.5h90.1v24.1h-90.1v-24.1z m0 55.2h90.1v24.1h-90.1v-24.1z m0 54.2h90.1V549h-90.1v-24.1z m0 55.3h90.1v24.1h-90.1v-24.1z m0 0M499.7 384.4c0 6.1 4.9 11 11 11s11-4.9 11-11-4.9-11-11-11-11 4.9-11 11z m0 0M499.7 635.4c0 6.1 4.9 11 11 11s11-4.9 11-11-4.9-11-11-11-11 4.9-11 11z m0 0" fill="#FFFFFF" p-id="4387"></path><path d="M820.9 405.2c-24.5 0-44.4-19.9-44.4-44.4 0-1.2 0.1-2.4 0.2-3.6h-77.1c-18.7 0-33.8 15.1-33.8 33.8v237.8c0 18.7 15.1 33.8 33.8 33.8H794c18.7 0 33.8-15.1 33.8-33.8V404.6c-2.3 0.4-4.6 0.6-6.9 0.6z m0 0" fill="#5D8EF9" p-id="4388"></path><path d="M701.7 415.5h90.1v24.1h-90.1v-24.1z m0 55.2h90.1v24.1h-90.1v-24.1z m0 54.2h90.1V549h-90.1v-24.1z m0 55.3h90.1v24.1h-90.1v-24.1z m0 0M735.7 635.4c0 6.1 4.9 11 11 11s11-4.9 11-11-4.9-11-11-11-11 4.9-11 11z m0 0" fill="#FFFFFF" p-id="4389"></path><path d="M520.9 337.5c-1.5-4.1-3.2-8.1-5.1-12-2.4-5-8.4-7.1-13.4-4.6-5 2.4-7.1 8.4-4.6 13.4 1.6 3.3 3.1 6.7 4.3 10.2 2 5.1 7.7 7.7 12.9 5.8 5-2 7.7-7.7 5.9-12.8z m-231.3-16.7c-5-2.4-11-0.3-13.4 4.6-1.9 3.9-3.6 7.9-5.1 12-1.9 5.2 0.8 10.9 6 12.8 5.2 1.9 10.9-0.7 12.9-5.9 1.3-3.5 2.7-6.9 4.3-10.2 1.2-2.4 1.3-5.2 0.5-7.7-1-2.3-2.8-4.4-5.2-5.6zM493 292.5c-5.5-5.9-11.6-11.2-18-16-4.5-3.3-10.8-2.3-14 2.1-3.3 4.5-2.3 10.7 2.1 14 5.5 4.1 10.6 8.6 15.3 13.6 1.9 2 4.5 3.2 7.3 3.2 4 0 7.6-2.4 9.2-6.1 1.5-3.6 0.8-7.9-1.9-10.8z m-161.9-13.9c-3.3-4.5-9.6-5.4-14-2.1-6.5 4.8-12.5 10.1-18 16-2.8 2.9-3.5 7.2-1.9 10.9s5.2 6.1 9.2 6.1c2.7 0 5.3-1.1 7.3-3.2 4.7-5 9.8-9.5 15.3-13.6 4.4-3.4 5.4-9.7 2.1-14.1z m108.3-20.8c-7.6-2.6-15.5-4.6-23.4-5.8-3.6-0.6-7.1 0.8-9.4 3.6-2.3 2.8-2.8 6.6-1.5 10 1.3 3.3 4.3 5.7 7.9 6.3 6.8 1 13.4 2.7 19.9 4.9 5.2 1.8 11-1 12.8-6.2 1.8-5.3-1-11-6.3-12.8z m-44.2-2.4c-0.7-2.6-2.4-4.7-4.8-6l-24.7-13.8c-2.3-1.3-5.1-1.6-7.6-0.9-2.6 0.7-4.7 2.4-6 4.8-1.3 2.3-1.6 5.1-0.9 7.6 0.7 2.6 2.4 4.7 4.8 6l4.1 2.3c-2.5 0.7-5 1.5-7.5 2.3-5.2 1.8-8 7.5-6.2 12.8 1.8 5.2 7.5 8 12.8 6.2 1.9-0.6 3.7-1.2 5.6-1.8l-1.7 3c-1.7 3.1-1.7 6.9 0.1 10 1.8 3.1 5.1 5 8.6 5 3.6 0 7-2 8.8-5.2l13.8-24.7c1.3-2.3 1.6-5 0.8-7.6z m350 416c-5.2-1.9-11 0.7-12.9 5.9-1.3 3.5-2.7 6.8-4.3 10.2-2.3 5-0.2 10.9 4.7 13.3 4.9 2.4 10.9 0.4 13.4-4.5 1.9-3.9 3.6-7.9 5.1-12 1.9-5.2-0.8-11-6-12.9z m-220.7 16.1c-1.6-3.3-3.1-6.7-4.3-10.2-1.9-5.2-7.7-7.9-12.9-5.9-5.2 1.9-7.9 7.7-5.9 12.9 1.5 4.1 3.2 8.1 5.1 12 2.4 5 8.4 7.1 13.4 4.6 5-2.4 7.1-8.4 4.6-13.4z m34.8 41.7c-5.5-4.1-10.6-8.6-15.3-13.6-2.4-2.7-6.1-3.8-9.7-3-3.5 0.8-6.3 3.5-7.4 6.9-1 3.5-0.1 7.2 2.4 9.8 5.5 5.9 11.6 11.2 18 16 1.7 1.3 3.8 2 5.9 2 4.3 0 8.2-2.8 9.5-6.9 1.5-4.1 0.1-8.6-3.4-11.2z m116.7 22c-1.8-5.2-7.5-8-12.8-6.2-6.5 2.2-13.1 3.9-19.9 4.9-5.5 0.8-9.2 6-8.4 11.4 0.8 5.5 5.9 9.2 11.4 8.4 8-1.2 15.8-3.1 23.4-5.8 2.5-0.9 4.6-2.7 5.8-5.1 1.2-2.3 1.3-5.1 0.5-7.6z m46.8-36.1c-1.9-1.8-4.5-2.8-7.2-2.7-2.7 0.1-5.2 1.2-7 3.2-4.7 5-9.8 9.5-15.3 13.6-4.5 3.3-5.4 9.6-2.1 14 3.3 4.5 9.6 5.4 14 2.1 6.5-4.8 12.5-10.1 18-16 1.8-1.9 2.8-4.5 2.7-7.2 0-2.6-1.1-5.2-3.1-7z m-98.1 43.6L610.9 734c-2.7-4.8-8.8-6.6-13.7-3.9-4.8 2.7-6.6 8.8-3.9 13.7l1.7 3c-1.9-0.5-3.8-1.1-5.6-1.8-3.4-1.2-7.2-0.5-9.9 1.9s-4 6-3.3 9.5c0.7 3.5 3.2 6.4 6.7 7.6 2.5 0.9 5 1.6 7.5 2.3l-4.1 2.3c-4.8 2.7-6.4 8.8-3.8 13.6 2.7 4.8 8.7 6.6 13.5 4l24.7-13.8c2.3-1.3 4-3.5 4.8-6 0.8-2.6 0.5-5.4-0.8-7.7z m0 0" fill="#330D84" p-id="4390"></path><path d="M820.9 316.4c-24.5 0-44.4 19.9-44.4 44.4s19.9 44.4 44.4 44.4 44.4-19.9 44.4-44.4-19.9-44.4-44.4-44.4z m0 0" fill="#FFBE1B" p-id="4391"></path><path d="M847 337.7c-3.1-2.6-7.8-2.2-10.5 0.9L813 366.5l-9.6-9.3c-2.9-2.9-7.7-2.8-10.5 0.2-2.9 3-2.8 7.7 0.2 10.5l15.3 14.8c1.5 1.4 3.5 2.2 5.5 2.1 2.1-0.1 4-1.1 5.3-2.6l28.6-34c2.8-3.2 2.4-7.9-0.8-10.5z m0 0" fill="#330D84" p-id="4392"></path><path d="M582.9 316.4c-24.5 0-44.4 19.9-44.4 44.4s19.9 44.4 44.4 44.4 44.4-19.9 44.4-44.4-19.9-44.4-44.4-44.4z m0 0" fill="#FFBE1B" p-id="4393"></path><path d="M609 337.7c-3.1-2.6-7.8-2.2-10.5 0.9L575 366.5l-9.6-9.3c-3-2.9-7.7-2.8-10.5 0.2s-2.8 7.7 0.2 10.5l15.3 14.8c1.5 1.4 3.5 2.2 5.5 2.1 2.1-0.1 4-1.1 5.3-2.6l28.6-34c2.8-3.2 2.4-7.9-0.8-10.5z m0 0" fill="#330D84" p-id="4394"></path><path d="M207.7 616.7c-24.5 0-44.4 19.9-44.4 44.4s19.9 44.4 44.4 44.4 44.4-19.9 44.4-44.4-19.9-44.4-44.4-44.4z m0 0" fill="#FFBE1B" p-id="4395"></path><path d="M233.8 638c-3.1-2.6-7.8-2.2-10.5 0.9l-23.5 27.9-9.6-9.3c-3-2.7-7.6-2.6-10.4 0.3-2.8 2.9-2.8 7.5 0 10.4l15.3 14.8c1.5 1.4 3.5 2.2 5.6 2.1 2.1-0.1 4-1.1 5.3-2.6l28.6-34c1.3-1.5 1.9-3.5 1.7-5.4 0-2-1-3.8-2.5-5.1z m0 0" fill="#330D84" p-id="4396"></path></svg>