<?xml version="1.0" standalone="no"?><!DOCTYPE svg PUBLIC "-//W3C//DTD SVG 1.1//EN" "http://www.w3.org/Graphics/SVG/1.1/DTD/svg11.dtd"><svg t="1559716524288" class="icon" style="" viewBox="0 0 1024 1024" version="1.1" xmlns="http://www.w3.org/2000/svg" p-id="4587" xmlns:xlink="http://www.w3.org/1999/xlink" width="128" height="128"><defs><style type="text/css"></style></defs><path d="M357.5 768.3c-25.8-6.5-45.9-26.6-52.4-52.4l-1.1-4.4-1.1 4.4c-6.5 25.8-26.6 45.9-52.4 52.4l-4.4 1.1 4.4 1.1c25.8 6.5 45.9 26.6 52.4 52.4l1.1 4.4 1.1-4.4c6.5-25.8 26.6-45.9 52.4-52.4l4.4-1.1-4.4-1.1z m0 0" fill="#330D84" p-id="4588"></path><path d="M460.8 202.1c-20.7-5.2-36.9-21.4-42.1-42.1l-0.9-3.5-0.9 3.5c-5.2 20.7-21.4 36.9-42.1 42.1l-3.5 0.9 3.5 0.9c20.7 5.2 36.9 21.4 42.1 42.1l0.9 3.5 0.9-3.5c5.2-20.7 21.4-36.9 42.1-42.1l3.5-0.9-3.5-0.9z m-100.8 32c-11.2-2.8-19.9-11.5-22.7-22.7l-0.5-1.9-0.5 1.9c-2.8 11.2-11.5 19.9-22.7 22.7l-1.9 0.5 1.9 0.5c11.2 2.8 19.9 11.5 22.7 22.7l0.5 1.9 0.5-1.9c2.8-11.2 11.5-19.9 22.7-22.7l1.9-0.5-1.9-0.5z m0 0" fill="#FFBE1B" p-id="4589"></path><path d="M851.4 661.2c-25.9-6.5-46.2-26.8-52.7-52.7l-1.1-4.4-1.1 4.4c-6.5 25.9-26.8 46.2-52.7 52.7l-4.4 1.1 4.4 1.1c25.9 6.5 46.2 26.7 52.7 52.7l1.1 4.4 1.1-4.4c6.5-25.9 26.8-46.2 52.7-52.7l4.4-1.1-4.4-1.1z m-75.6-73.5c-13.8-3.4-24.5-14.2-27.9-27.9l-0.6-2.3-0.6 2.3c-3.4 13.8-14.2 24.5-27.9 27.9l-2.3 0.6 2.3 0.6c13.8 3.4 24.5 14.2 27.9 27.9l0.6 2.4 0.6-2.4c3.4-13.7 14.2-24.5 27.9-27.9l2.3-0.6-2.3-0.6z m-110.5-285h-85.8l97.6 97.6v278.9c0 23.2-18.8 41.9-41.9 41.9h-279c-4 0-7.8-0.6-11.5-1.6 2.6 20.7 20.2 36.8 41.6 36.8h279c23.2 0 41.9-18.8 41.9-41.9V344.6c0.1-23.1-18.7-41.9-41.9-41.9z m0 0" fill="#5D8EF9" p-id="4590"></path><path d="M544.4 267.5H356.2c-23.2 0-41.9 18.8-41.9 41.9v94.3c14.9 11 26.1 27.2 30.3 46.7 6.5 30.1-5.2 60-27.7 78l19.5 132-20.5 28.9-0.4-0.2c4.5 18.3 21 32 40.7 32h279c23.2 0 41.9-18.8 41.9-41.9V400.3L544.4 267.5z m0 0" fill="#330D84" p-id="4591"></path><path d="M544.4 267.5v90.8c0 23.2 18.8 41.9 41.9 41.9h90.8L544.4 267.5z m0 0" fill="#6857E5" p-id="4592"></path><path d="M475.6 338.9H371.2c-5.5 0-10 4.5-10 10s4.5 10 10 10h104.4c5.5 0 10-4.5 10-10 0.1-5.5-4.4-10-10-10z m40.2 62.7H371.2c-5.5 0-10 4.5-10 10s4.5 10 10 10h144.6c5.5 0 10-4.5 10-10s-4.4-10-10-10z m90.4 62.7h-235c-5.5 0-10 4.5-10 10s4.5 10 10 10h235c5.5 0 10-4.5 10-10s-4.5-10-10-10z m0 62.6h-235c-5.5 0-10 4.5-10 10s4.5 10 10 10h235c5.5 0 10-4.5 10-10s-4.5-10-10-10z m0 62.7h-235c-5.5 0-10 4.5-10 10s4.5 10 10 10h235c5.5 0 10-4.5 10-10s-4.5-10-10-10z m0 62.6h-235c-5.5 0-10 4.5-10 10s4.5 10 10 10h235c5.5 0 10-4.5 10-10s-4.5-10-10-10z m0 0" fill="#FFFFFF" p-id="4593"></path><path d="M344.6 450.4c-9.2-42.4-51.1-69.4-93.5-60.2-42.4 9.2-69.4 51.1-60.2 93.5 6.5 30.1 29.5 52.4 57.5 59.6l19.5 67.8 21.6 13.9-11.7 18.1 18.1 11.6-10.7 16.6v0.1l30.6 17.8 20.5-28.9-19.5-132c22.6-17.9 34.3-47.7 27.8-77.9z m-76.5 18.1c-16.1 3.5-32-6.7-35.5-22.9-3.5-16.1 6.7-32 22.9-35.5 16.1-3.5 32 6.7 35.5 22.9 3.4 16.1-6.8 32-22.9 35.5z m0 0" fill="#FFBE1B" p-id="4594"></path></svg>