<?xml version="1.0" standalone="no"?><!DOCTYPE svg PUBLIC "-//W3C//DTD SVG 1.1//EN" "http://www.w3.org/Graphics/SVG/1.1/DTD/svg11.dtd"><svg t="1559714822898" class="icon" style="" viewBox="0 0 1024 1024" version="1.1" xmlns="http://www.w3.org/2000/svg" p-id="5363" xmlns:xlink="http://www.w3.org/1999/xlink" width="32" height="32"><defs><style type="text/css"></style></defs><path d="M840.1 132.9V890H183.9V132.9h656.2m0-101H183.9c-55.8 0-101 45.2-101 101V890c0 55.8 45.2 101 101 101h656.2c55.8 0 101-45.2 101-101V132.9c0-55.8-45.2-101-101-101z" fill="#4585F5" p-id="5364"></path><path d="M701.3 612.4H322.7c-20.9 0-37.9 16.9-37.9 37.9 0 20.9 16.9 37.9 37.9 37.9h378.6c20.9 0 37.9-16.9 37.9-37.9-0.1-20.9-17-37.9-37.9-37.9zM319.3 511.5h183.6c19 0 34.4-16.9 34.4-37.9 0-20.9-15.4-37.9-34.4-37.9H319.3c-19 0-34.4 16.9-34.4 37.9 0 20.9 15.4 37.9 34.4 37.9zM320.6 334.8h357.5c19.8 0 35.8-16.9 35.8-37.9 0-20.9-16-37.9-35.8-37.9H320.6c-19.8 0-35.8 16.9-35.8 37.9 0.1 20.9 16.1 37.9 35.8 37.9z" fill="#29CCB6" p-id="5365"></path></svg>