<?xml version="1.0" standalone="no"?><!DOCTYPE svg PUBLIC "-//W3C//DTD SVG 1.1//EN" "http://www.w3.org/Graphics/SVG/1.1/DTD/svg11.dtd"><svg t="1559716830979" class="icon" style="" viewBox="0 0 1024 1024" version="1.1" xmlns="http://www.w3.org/2000/svg" p-id="5436" xmlns:xlink="http://www.w3.org/1999/xlink" width="128" height="128"><defs><style type="text/css"></style></defs><path d="M361.9 770.8c-20.5-5.1-36.5-21.2-41.7-41.7l-0.9-3.5-0.9 3.5c-5.1 20.5-21.2 36.5-41.7 41.7l-3.5 0.9 3.5 0.9c20.5 5.1 36.5 21.1 41.7 41.7l0.9 3.5 0.9-3.5c5.1-20.5 21.2-36.5 41.7-41.7l3.5-0.9-3.5-0.9zM235.5 440c-25-6.3-44.5-25.8-50.8-50.8l-1.1-4.3-1.1 4.3c-6.3 25-25.8 44.5-50.8 50.8l-4.3 1.1 4.3 1.1c25 6.3 44.5 25.8 50.8 50.7l1.1 4.3 1.1-4.3c6.3-25 25.8-44.5 50.8-50.7l4.3-1.1-4.3-1.1z m208.6 360.5c-13.8-3.4-24.5-14.2-27.9-27.9l-0.6-2.3-0.6 2.3c-3.4 13.8-14.2 24.5-27.9 27.9l-2.3 0.6 2.3 0.6c13.8 3.4 24.5 14.2 27.9 27.9l0.6 2.4 0.6-2.4c3.4-13.7 14.2-24.5 27.9-27.9l2.3-0.6-2.3-0.6z m0 0" fill="#5D8EF9" p-id="5437"></path><path d="M892.6 512.7c-26.6-6.7-47.4-27.4-54.1-54.1l-1.1-4.5-1.1 4.5c-6.7 26.6-27.5 47.4-54.1 54.1l-4.5 1.1 4.5 1.2c26.6 6.7 47.4 27.4 54.1 54l1.1 4.5 1.1-4.5c6.7-26.6 27.5-47.4 54.1-54l4.5-1.2-4.5-1.1z m-44 138.5c-18.9-4.7-33.7-19.5-38.5-38.5l-0.8-3.2-0.8 3.2c-4.7 18.9-19.5 33.7-38.5 38.5l-3.2 0.8 3.2 0.8c18.9 4.7 33.7 19.5 38.5 38.5l0.8 3.2 0.8-3.2c4.8-18.9 19.5-33.7 38.5-38.5l3.2-0.8-3.2-0.8z m0 0" fill="#FFBE1B" p-id="5438"></path><path d="M590 223.9H311.1c-23.2 0-41.9 18.8-41.9 41.9v389.7c0 23.2 18.8 41.9 41.9 41.9h68.5V316c0-23.2 18.8-41.9 41.9-41.9h210.4v-8.3c0-23.1-18.7-41.9-41.9-41.9z m0 0" fill="#5D8EF9" p-id="5439"></path><path d="M328.1 307.1c-3.6 0-7 1.9-8.8 5-1.8 3.1-1.8 7 0 10.1 1.8 3.1 5.2 5 8.8 5h51.5V316c0-3.1 0.4-6.1 1-9h-52.5z m0 72.7c-5.5 0-10 4.5-10 10s4.5 10 10 10h51.5v-20.1h-51.5z m0 72.6c-5.5 0-10 4.5-10 10s4.5 10 10 10h51.5v-20.1h-51.5z m0 72.7c-5.5 0-10 4.5-10 10s4.5 10 10 10h51.5V525h-51.5z m0 72.7c-5.5 0-10 4.5-10 10s4.5 10 10 10h51.5v-20.1h-51.5z m0 0" fill="#FFFFFF" p-id="5440"></path><path d="M700.5 274.1h-279c-23.2 0-41.9 18.8-41.9 41.9v389.7c0 23.2 18.8 41.9 41.9 41.9h278.9c23.1 0 41.9-18.8 41.9-41.9V316c0.1-23.1-18.7-41.9-41.8-41.9z m0 0" fill="#8AC9F9" p-id="5441"></path><path d="M678.4 506.7H443.5c-5.5 0-10 4.5-10 10s4.5 10 10 10h234.9c5.5 0 10-4.5 10-10 0.1-5.5-4.4-10-10-10z m0 72.7H443.5c-5.5 0-10 4.5-10 10s4.5 10 10 10h234.9c5.5 0 10-4.5 10-10s-4.4-10-10-10z m0 72.7H443.5c-5.5 0-10 4.5-10 10s4.5 10 10 10h234.9c5.5 0 10-4.5 10-10s-4.4-10-10-10z m0 0M678.4 357.5H443.5c-5.5 0-10 4.5-10 10s4.5 10 10 10h234.9c5.5 0 10-4.5 10-10s-4.4-10-10-10z m0 72.7H443.5c-5.5 0-10 4.5-10 10s4.5 10 10 10h234.9c5.5 0 10-4.5 10-10s-4.4-10-10-10z m0 0" fill="#FFFFFF" p-id="5442"></path></svg>