<?xml version="1.0" standalone="no"?><!DOCTYPE svg PUBLIC "-//W3C//DTD SVG 1.1//EN" "http://www.w3.org/Graphics/SVG/1.1/DTD/svg11.dtd"><svg t="1559806907036" class="icon" style="" viewBox="0 0 1024 1024" version="1.1" xmlns="http://www.w3.org/2000/svg" p-id="5639" xmlns:xlink="http://www.w3.org/1999/xlink" width="48" height="48"><defs><style type="text/css"></style></defs><path d="M303.407407 265.481481h530.962963v701.62963H303.407407z" fill="#0099FF" opacity=".2" p-id="5640"></path><path d="M853.333333 1024H170.666667a37.925926 37.925926 0 0 1-37.925926-37.925926V189.62963a37.925926 37.925926 0 0 1 37.925926-37.925926h189.629629a151.703704 151.703704 0 0 1 303.407408 0h189.629629a37.925926 37.925926 0 0 1 37.925926 37.925926v796.444444a37.925926 37.925926 0 0 1-37.925926 37.925926z m-18.962963-796.444444c0-17.844148-1.156741-18.962963-18.962963-18.962963H625.777778c0-71.376593-42.552889-151.703704-113.777778-151.703704s-113.777778 80.327111-113.777778 151.703704H208.592593c-17.806222 0-18.962963 10.94163-18.962963 28.80474V948.148148c0 17.844148 1.156741 18.962963 18.962963 18.962963h606.814814c17.806222 0 18.962963-20.081778 18.962963-37.925926V227.555556zM265.481481 739.555556h493.037038v75.851851H265.481481v-75.851851z m0-170.666667h341.333334v75.851852H265.481481v-75.851852z m0-189.62963h341.333334v75.851852H265.481481v-75.851852z m246.518519-132.74074a56.888889 56.888889 0 1 1 0-113.777778 56.888889 56.888889 0 0 1 0 113.777778z" fill="#0099FF" p-id="5641"></path></svg>