<?xml version="1.0" standalone="no"?><!DOCTYPE svg PUBLIC "-//W3C//DTD SVG 1.1//EN" "http://www.w3.org/Graphics/SVG/1.1/DTD/svg11.dtd"><svg t="1559806954651" class="icon" style="" viewBox="0 0 1024 1024" version="1.1" xmlns="http://www.w3.org/2000/svg" p-id="5876" xmlns:xlink="http://www.w3.org/1999/xlink" width="48" height="48"><defs><style type="text/css"></style></defs><path d="M562.196078 311.215686m-190.745098 0a190.745098 190.745098 0 1 0 381.490196 0 190.745098 190.745098 0 1 0-381.490196 0Z" fill="#0099FF" opacity=".2" p-id="5877"></path><path d="M230.901961 1013.960784C230.901961 808.819451 397.211608 642.509804 602.352941 642.509804S973.803922 808.819451 973.803922 1013.960784" fill="#0099FF" opacity=".2" p-id="5878"></path><path d="M1013.960784 1024H10.039216c0-236.80502 164.181333-434.778353 384.76298-487.644863C298.144627 491.90149 230.901961 394.460863 230.901961 281.098039c0-155.246431 125.851608-281.098039 281.098039-281.098039s281.098039 125.851608 281.098039 281.098039c0 113.362824-67.242667 210.803451-163.900235 255.257098C849.779451 589.221647 1013.960784 787.19498 1013.960784 1024zM732.862745 281.098039c0-121.976471-98.886275-220.862745-220.862745-220.862745S291.137255 159.121569 291.137255 281.098039c0 121.956392 98.846118 220.822588 220.782431 220.862745h0.160628C634.016627 501.920627 732.862745 403.054431 732.862745 281.098039z m-114.065569 315.693177L632.470588 622.431373l-84.329412 261.019607h-72.282352L391.529412 622.431373l13.653333-25.6C234.596392 642.81098 104.749176 794.302745 70.27451 963.764706h883.45098c-24.937412-167.815529-161.551059-320.793098-334.928314-366.97349z" fill="#0099FF" p-id="5879"></path></svg>