<?xml version="1.0" standalone="no"?><!DOCTYPE svg PUBLIC "-//W3C//DTD SVG 1.1//EN" "http://www.w3.org/Graphics/SVG/1.1/DTD/svg11.dtd"><svg t="1559806971364" class="icon" style="" viewBox="0 0 1113 1024" version="1.1" xmlns="http://www.w3.org/2000/svg" p-id="6076" xmlns:xlink="http://www.w3.org/1999/xlink" width="52.171875" height="48"><defs><style type="text/css"></style></defs><path d="M1075.645217 1024H215.485217C194.82713 1024 178.086957 1007.081739 178.086957 986.245565V759.763478c0-20.836174 16.740174-37.732174 37.39826-37.732174h113.085218c131.539478 0 200.43687-180.023652 169.004522-219.91513-45.30087-35.684174-74.373565-90.089739-74.373566-151.262609 0-107.720348 89.711304-195.027478 200.347826-195.027478 110.658783 0 200.347826 87.30713 200.347826 195.027478 0 59.058087-49.330087 111.88313-91.959652 147.634087-29.896348 39.513043-141.55687 223.543652-14.246956 223.543652h357.954782c20.658087 0 37.398261 16.896 37.398261 37.732174v226.482087C1113.043478 1007.081739 1096.303304 1024 1075.645217 1024z" fill="#0099FF" opacity=".2" p-id="6077"></path><path d="M1068.521739 1024H44.521739a44.521739 44.521739 0 0 1-44.521739-44.521739V712.347826a44.521739 44.521739 0 0 1 44.521739-44.521739h267.130435c156.605217 0 108.29913-94.786783 62.886956-153.956174C309.114435 460.889043 267.130435 380.17113 267.130435 289.391304c0-159.833043 129.558261-289.391304 289.391304-289.391304s289.391304 129.558261 289.391304 289.391304c0 87.641043-39.112348 166.021565-100.663652 219.091479C702.063304 567.073391 649.817043 667.826087 801.391304 667.826087h267.130435a44.521739 44.521739 0 0 1 44.521739 44.521739v267.130435a44.521739 44.521739 0 0 1-44.521739 44.521739z m-22.260869-103.557565v-153.889392c0-20.324174-2.092522-31.944348-22.26087-31.944347H712.347826c-113.174261-8.904348-88.353391-187.14713-55.117913-232.225392 47.34887-40.826435 121.967304-123.347478 121.967304-190.775652C779.197217 188.68313 679.513043 89.043478 556.521739 89.043478s-222.697739 99.639652-222.697739 222.564174c0 69.832348 75.464348 154.178783 125.818435 194.916174C494.592 552.025043 529.096348 734.608696 400.695652 734.608696H89.043478c-20.168348 0-22.26087 11.620174-22.260869 31.944347v153.889392C66.782609 940.744348 60.861217 957.217391 81.029565 957.217391h950.984348c20.168348 0 14.246957-16.473043 14.246957-36.774956zM567.652174 222.608696a33.168696 33.168696 0 0 1-12.377044-2.493218L556.521739 222.608696c-71.769043 2.493217-66.782609 66.782609-66.782609 66.782608h-2.248347c1.26887 3.517217 2.248348 7.190261 2.248347 11.130435a33.391304 33.391304 0 0 1-66.782608 0c0-5.632 1.736348-10.685217 4.207304-15.337739L422.956522 289.391304a133.565217 133.565217 0 0 1 133.565217-133.565217l-4.207304 4.207304c4.652522-2.470957 9.705739-4.207304 15.337739-4.207304a33.391304 33.391304 0 1 1 0 66.782609zM445.217391 269.57913V267.130435l-4.207304 4.185043c1.335652-0.690087 2.80487-1.157565 4.207304-1.736348zM534.26087 178.086957l1.335652 2.693565a39.846957 39.846957 0 0 1 2.849391-6.90087L534.26087 178.086957z" fill="#0099FF" p-id="6078"></path></svg>