<?xml version="1.0" standalone="no"?><!DOCTYPE svg PUBLIC "-//W3C//DTD SVG 1.1//EN" "http://www.w3.org/Graphics/SVG/1.1/DTD/svg11.dtd"><svg t="1559807007276" class="icon" style="" viewBox="0 0 1024 1024" version="1.1" xmlns="http://www.w3.org/2000/svg" p-id="6474" xmlns:xlink="http://www.w3.org/1999/xlink" width="48" height="48"><defs><style type="text/css"></style></defs><path d="M225.28 143.36h655.36v819.2H225.28z" fill="#0099FF" opacity=".2" p-id="6475"></path><path d="M921.6 1024H102.4a40.96 40.96 0 0 1-40.96-40.96V40.96a40.96 40.96 0 0 1 40.96-40.96h819.2a40.96 40.96 0 0 1 40.96 40.96v942.08a40.96 40.96 0 0 1-40.96 40.96zM901.12 102.4a40.96 40.96 0 0 0-40.96-40.96H163.84a40.96 40.96 0 0 0-40.96 40.96v819.2a40.96 40.96 0 0 0 40.96 40.96h696.32a40.96 40.96 0 0 0 40.96-40.96V102.4zM573.44 737.28h245.76v61.44H573.44v-61.44z m0-143.36h245.76v61.44H573.44v-61.44z m0-266.24h245.76v61.44H573.44v-61.44z m0-143.36h245.76v61.44H573.44V184.32z m-290.44736 165.80608L210.57536 277.7088l43.45856-43.43808 72.3968 72.41728 136.33536-136.33536 43.43808 43.43808-179.77344 179.77344-43.43808-43.43808zM348.16 573.44a122.88 122.88 0 1 1 0 245.76 122.88 122.88 0 0 1 0-245.76z m0 184.32a61.44 61.44 0 1 0 0-122.88 61.44 61.44 0 0 0 0 122.88z" fill="#0099FF" p-id="6476"></path></svg>