<?xml version="1.0" standalone="no"?><!DOCTYPE svg PUBLIC "-//W3C//DTD SVG 1.1//EN" "http://www.w3.org/Graphics/SVG/1.1/DTD/svg11.dtd"><svg t="1559807023399" class="icon" style="" viewBox="0 0 1024 1024" version="1.1" xmlns="http://www.w3.org/2000/svg" p-id="6673" xmlns:xlink="http://www.w3.org/1999/xlink" width="48" height="48"><defs><style type="text/css"></style></defs><path d="M891.259259 1024H132.740741a37.925926 37.925926 0 0 1-37.925926-37.925926V341.333333h834.37037v644.740741a37.925926 37.925926 0 0 1-37.925926 37.925926z m-56.888889-625.777778H189.62963c-41.889185 0-37.925926-3.963259-37.925926 37.925926v474.074074c0 41.889185 14.999704 56.888889 56.888889 56.888889h606.814814c41.889185 0 56.888889-14.999704 56.888889-56.888889V436.148148c0-41.889185 3.963259-37.925926-37.925926-37.925926z m-151.703703 341.333334h113.777777v113.777777h-113.777777v-113.777777z m0-208.592593h113.777777v113.777778h-113.777777v-113.777778zM455.111111 739.555556h113.777778v113.777777h-113.777778v-113.777777z m0-208.592593h113.777778v113.777778h-113.777778v-113.777778zM227.555556 739.555556h113.777777v113.777777H227.555556v-113.777777z m0-208.592593h113.777777v113.777778H227.555556v-113.777778zM94.814815 37.925926a37.925926 37.925926 0 0 1 37.925926-37.925926h758.518518a37.925926 37.925926 0 0 1 37.925926 37.925926v265.481481H94.814815V37.925926z m94.814815 208.592593h644.74074c41.889185 0 37.925926 3.963259 37.925926-37.925926V113.777778c0-41.889185-14.999704-56.888889-56.888889-56.888889H208.592593c-41.889185 0-56.888889 14.999704-56.888889 56.888889v94.814815c0 41.889185-3.963259 37.925926 37.925926 37.925926z" fill="#0099FF" p-id="6674"></path><path d="M246.518519 113.777778h625.777777v132.740741H246.518519z" fill="#0099FF" opacity=".2" p-id="6675"></path><path d="M246.518519 398.222222h625.777777v568.888889H246.518519z" fill="#0099FF" opacity=".2" p-id="6676"></path></svg>