<?xml version="1.0" standalone="no"?><!DOCTYPE svg PUBLIC "-//W3C//DTD SVG 1.1//EN" "http://www.w3.org/Graphics/SVG/1.1/DTD/svg11.dtd"><svg t="1559807045379" class="icon" style="" viewBox="0 0 1116 1024" version="1.1" xmlns="http://www.w3.org/2000/svg" p-id="6873" xmlns:xlink="http://www.w3.org/1999/xlink" width="52.3125" height="48"><defs><style type="text/css"></style></defs><path d="M534.800105 391.157302C432.446619 141.332001 141.479915 199.636975 139.572851 489.580377c-1.046559 159.239791 138.541176 218.754122 231.498887 282.431433 90.143629 61.723734 154.286078 146.192687 164.333046 182.147808 8.605042-35.234159 80.050148-122.075312 163.495798-183.892073 91.236702-67.561208 232.545446-123.191642 231.498887-282.431433-1.93032-290.664365-297.943766-336.526913-395.599364-96.67881z" fill="#0099FF" opacity=".2" p-id="6874"></path><path d="M865.326746 358.713968c21.977742 14.698342 25.140677 42.560073 7.046832 62.235385l-152.890665 166.263366c-18.093845 19.675312-50.583693 23.722008-72.561436 9.023665-22.000999-14.698342-25.163934-42.536816-7.070088-62.235385l152.890665-166.263366c18.093845-19.675312 50.60695-23.722008 72.584692-9.023665z" fill="#0099FF" p-id="6875"></path><path d="M789.64889 762.732319c-117.796048 87.771429-218.661095 211.125869-230.801181 261.174654-14.209948-51.072087-104.772201-171.031024-232.010538-258.732683C195.598652 674.751578-1.480067 590.212855 0.008372 364.016534 2.729426-47.816125 413.469013-130.587327 557.987205 224.219487c137.866727-340.666636 555.76943-275.500886 558.490484 137.355076 1.48844 226.173064-198.032251 305.176652-326.828799 401.157756zM558.243031 372.807631C344.97753-48.560345 66.499765 66.723961 93.059111 390.924733c15.093709 184.473495 158.914195 207.753623 265.546945 281.733727 103.376789 71.770702 176.961526 169.937951 188.496934 211.707291 9.860913-40.932092 91.818124-141.866909 187.520145-213.707382C839.279052 592.119918 1022.938556 557.885805 1023.380437 372.807631c0.976789-408.134817-356.31851-323.503066-465.137406 0z" fill="#0099FF" p-id="6876"></path></svg>